<?xml version="1.0" standalone="no"?><!DOCTYPE svg PUBLIC "-//W3C//DTD SVG 1.1//EN" "http://www.w3.org/Graphics/SVG/1.1/DTD/svg11.dtd"><svg t="1761925409848" class="icon" viewBox="0 0 1024 1024" version="1.1" xmlns="http://www.w3.org/2000/svg" p-id="6003" xmlns:xlink="http://www.w3.org/1999/xlink" width="200" height="200"><path d="M853.307077 85.307077H170.692923a85.070769 85.070769 0 0 0-85.385846 85.385846v682.614154a85.070769 85.070769 0 0 0 85.385846 85.385846h682.614154a85.070769 85.070769 0 0 0 85.385846-85.385846V170.692923a85.070769 85.070769 0 0 0-85.385846-85.385846zM469.307077 170.692923c94.286769 0 170.692923 76.406154 170.692923 170.614154 0 64.039385-34.107077 118.153846-85.307077 147.613538v-51.987692c25.993846-23.473231 42.614154-57.659077 42.614154-95.625846 0-70.813538-57.186462-128-128-128s-128 57.186462-128 128c0 37.966769 16.699077 72.152615 42.692923 95.625846v51.987692a168.802462 168.802462 0 0 1-85.307077-147.613538c0-94.286769 76.406154-170.614154 170.614154-170.614154zM768 789.267692a66.166154 66.166154 0 0 1-64.039385 63.960616H469.307077a57.737846 57.737846 0 0 1-42.614154-18.353231L256 655.753846l31.507692-32.846769a42.850462 42.850462 0 0 1 32.452923-13.627077h8.585847l98.146461 73.412923V341.307077c0-23.473231 19.140923-42.614154 42.614154-42.614154 23.473231 0 42.692923 19.140923 42.692923 42.614154v190.779077l51.593846 5.513846L731.766154 631.020308c22.606769 10.24 36.233846 32.846769 36.233846 57.580307v100.745847z" fill="#6765a7" p-id="6004"></path></svg>